<svg width="86" height="86" viewBox="0 0 86 86" fill="none" xmlns="http://www.w3.org/2000/svg">
<path fill-rule="evenodd" clip-rule="evenodd" d="M0.5 43C0.5 19.5289 19.5279 0.5 43 0.5C53.5794 0.5 63.249 4.37409 70.686 10.7689L70.034 11.5271C62.771 5.28193 53.3306 1.5 43 1.5C20.0802 1.5 1.5 20.0811 1.5 43C1.5 53.3306 5.28193 62.771 11.5271 70.034L10.7689 70.686C4.37409 63.249 0.5 53.5794 0.5 43Z" fill="#70CF29"/>
<path fill-rule="evenodd" clip-rule="evenodd" d="M74.9975 15.0439C81.5308 22.5173 85.5 32.293 85.5 43C85.5 66.4712 66.4722 85.5 43 85.5C32.292 85.5 22.5173 81.5308 15.0439 74.9975L15.7021 74.2446C23.0008 80.6253 32.5441 84.5 43 84.5C65.9199 84.5 84.5 65.9189 84.5 43C84.5 32.545 80.6253 23.0008 74.2446 15.7021L74.9975 15.0439Z" fill="#3FA9F5"/>
<path d="M64 27C64 23.141 60.86 20 57 20H28C24.14 20 21 23.141 21 27V61H27V65H29V61H56V65H58V61H64V27ZM48.41 44C47.931 41.167 45.468 39 42.5 39C39.532 39 37.069 41.167 36.59 44H23V28H62V44H48.41ZM46.358 44H38.642C39.089 42.279 40.642 41 42.5 41C44.358 41 45.911 42.279 46.358 44ZM28 22H57C59.415 22 61.434 23.721 61.899 26H23.101C23.566 23.721 25.585 22 28 22ZM23 59V46H62V59H23Z" fill="#3FA9F5"/>
<path d="M30.5 48C28.019 48 26 50.019 26 52.5C26 54.981 28.019 57 30.5 57C32.981 57 35 54.981 35 52.5C35 50.019 32.981 48 30.5 48ZM30.5 55C29.122 55 28 53.879 28 52.5C28 51.121 29.122 50 30.5 50C31.878 50 33 51.121 33 52.5C33 53.879 31.878 55 30.5 55Z" fill="#3FA9F5"/>
<path d="M54.5 48C52.019 48 50 50.019 50 52.5C50 54.981 52.019 57 54.5 57C56.981 57 59 54.981 59 52.5C59 50.019 56.981 48 54.5 48ZM54.5 55C53.122 55 52 53.879 52 52.5C52 51.121 53.122 50 54.5 50C55.878 50 57 51.121 57 52.5C57 53.879 55.878 55 54.5 55Z" fill="#3FA9F5"/>
</svg>
