<svg width="86" height="86" viewBox="0 0 86 86" fill="none" xmlns="http://www.w3.org/2000/svg">
<path fill-rule="evenodd" clip-rule="evenodd" d="M0.5 43C0.5 19.5279 19.5268 0.5 43 0.5C53.5795 0.5 63.249 4.3751 70.6859 10.7689L70.034 11.5271C62.771 5.28289 53.3305 1.5 43 1.5C20.0791 1.5 1.5 20.0801 1.5 43C1.5 53.3305 5.28192 62.77 11.5272 70.034L10.7689 70.686C4.3741 63.248 0.5 53.5795 0.5 43Z" fill="#70CF29"/>
<path fill-rule="evenodd" clip-rule="evenodd" d="M74.9974 15.0449C81.5308 22.5173 85.5 32.293 85.5 43C85.5 66.4722 66.4722 85.5 43 85.5C32.292 85.5 22.5173 81.5308 15.0439 74.9975L15.7021 74.2446C23.0008 80.6253 32.5441 84.5 43 84.5C65.9199 84.5 84.5 65.9199 84.5 43C84.5 32.545 80.6253 23.0008 74.2446 15.7031L74.9974 15.0449Z" fill="#3FA9F5"/>
<path d="M65.4141 41L60.4141 36H57.4141L52.4141 31H36.0001V20H30.0001V31H24.0001V36H21.0001V41H15.6631L21.2521 60H63.67L71.493 41H65.4141ZM32.0001 22H34.0001V31H32.0001V22ZM26.0001 33H51.5861L54.5861 36H26.0001V33ZM23.0001 38H59.5861L62.5861 41H23.0001V38ZM62.3301 58H22.748L18.337 43H68.5071L62.3301 58Z" fill="#3FA9F5"/>
<path d="M30 46.5C27.794 46.5 26 48.294 26 50.5C26 52.706 27.794 54.5 30 54.5C32.206 54.5 34 52.706 34 50.5C34 48.294 32.206 46.5 30 46.5ZM30 52.5C28.897 52.5 28 51.603 28 50.5C28 49.397 28.897 48.5 30 48.5C31.103 48.5 32 49.397 32 50.5C32 51.603 31.103 52.5 30 52.5Z" fill="#3FA9F5"/>
<path d="M43 46.5C40.794 46.5 39 48.294 39 50.5C39 52.706 40.794 54.5 43 54.5C45.206 54.5 47 52.706 47 50.5C47 48.294 45.206 46.5 43 46.5ZM43 52.5C41.897 52.5 41 51.603 41 50.5C41 49.397 41.897 48.5 43 48.5C44.103 48.5 45 49.397 45 50.5C45 51.603 44.103 52.5 43 52.5Z" fill="#3FA9F5"/>
<path d="M56 46.5C53.794 46.5 52 48.294 52 50.5C52 52.706 53.794 54.5 56 54.5C58.206 54.5 60 52.706 60 50.5C60 48.294 58.206 46.5 56 46.5ZM56 52.5C54.897 52.5 54 51.603 54 50.5C54 49.397 54.897 48.5 56 48.5C57.103 48.5 58 49.397 58 50.5C58 51.603 57.103 52.5 56 52.5Z" fill="#3FA9F5"/>
</svg>
