<svg width="86" height="86" viewBox="0 0 86 86" fill="none" xmlns="http://www.w3.org/2000/svg">
<path fill-rule="evenodd" clip-rule="evenodd" d="M0.5 43C0.5 19.5279 19.5279 0.5 43 0.5C53.5795 0.5 63.249 4.3751 70.6859 10.7689L70.034 11.5271C62.771 5.28289 53.3305 1.5 43 1.5C20.0801 1.5 1.5 20.0801 1.5 43C1.5 53.3305 5.28192 62.77 11.5272 70.034L10.7689 70.686C4.3741 63.248 0.5 53.5795 0.5 43Z" fill="#70CF29"/>
<path fill-rule="evenodd" clip-rule="evenodd" d="M74.9975 15.0449C81.5308 22.5173 85.5 32.293 85.5 43C85.5 66.4722 66.4722 85.5 43 85.5C32.292 85.5 22.5173 81.5308 15.0439 74.9975L15.7021 74.2446C23.0008 80.6253 32.5441 84.5 43 84.5C65.9199 84.5 84.5 65.9199 84.5 43C84.5 32.545 80.6253 23.0008 74.2446 15.7031L74.9975 15.0449Z" fill="#3FA9F5"/>
<path d="M44.0002 38H55.9802L64.7432 30.225L55.9592 23H44.0002V20H42.0002V23H25.0002V38H42.0002V43H31.8602L23.0962 50.755L31.8802 58H42.0002V65H32.0002V67H55.0002V65H44.0002V58H62.0002V43H44.0002V38ZM27.0002 25H55.2422L61.6652 30.282L55.2212 36H27.0002V25ZM60.0002 45V56H44.0002H42.0002H32.5992L26.1752 50.701L32.6182 45H60.0002Z" fill="#3FA9F5"/>
</svg>
