<svg width="86" height="86" viewBox="0 0 86 86" fill="none" xmlns="http://www.w3.org/2000/svg">
<path fill-rule="evenodd" clip-rule="evenodd" d="M0.5 43C0.5 19.5279 19.5279 0.5 43 0.5C53.5795 0.5 63.249 4.3751 70.686 10.7689L70.034 11.5271C62.771 5.28289 53.3305 1.5 43 1.5C20.0801 1.5 1.5 20.0801 1.5 43C1.5 53.3305 5.28191 62.77 11.5271 70.034L10.7689 70.686C4.37409 63.248 0.5 53.5795 0.5 43Z" fill="#70CF29"/>
<path fill-rule="evenodd" clip-rule="evenodd" d="M74.9974 15.0449C81.5308 22.5173 85.5 32.293 85.5 43C85.5 66.4722 66.4722 85.5 43 85.5C32.292 85.5 22.5173 81.5308 15.0439 74.9975L15.7021 74.2446C23.0008 80.6253 32.544 84.5 43 84.5C65.9199 84.5 84.5 65.9199 84.5 43C84.5 32.545 80.6253 23.0008 74.2446 15.7031L74.9974 15.0449Z" fill="#3FA9F5"/>
<path d="M51.944 40.1651C56.856 40.1651 60.851 36.1691 60.851 31.2581C60.851 26.3471 56.855 22.3501 51.944 22.3501C47.031 22.3501 43.035 26.3461 43.035 31.2581C43.035 36.1701 47.032 40.1651 51.944 40.1651ZM51.944 24.3501C55.753 24.3501 58.851 27.4491 58.851 31.2581C58.851 35.0671 55.752 38.1651 51.944 38.1651C48.134 38.1651 45.035 35.0661 45.035 31.2581C45.035 27.4491 48.135 24.3501 51.944 24.3501Z" fill="#3FA9F5"/>
<path d="M52.001 43.7661C43.6 43.7661 37 50.6001 37 59.0001V60.0001H67V59.0001C67 50.6001 60.401 43.7661 52.001 43.7661ZM38.747 58.0001C39.26 51.1671 44.983 45.7661 51.945 45.7661C58.905 45.7661 64.629 51.1681 65.141 58.0001H38.747Z" fill="#3FA9F5"/>
<path d="M30.303 44.1031C34.316 44.1031 37.581 40.8381 37.581 36.8241C37.581 32.8111 34.316 29.5461 30.303 29.5461C26.289 29.5461 23.023 32.8111 23.023 36.8241C23.022 40.8381 26.289 44.1031 30.303 44.1031ZM30.303 31.5461C33.214 31.5461 35.581 33.9141 35.581 36.8241C35.581 39.7351 33.213 42.1031 30.303 42.1031C27.391 42.1031 25.023 39.7351 25.023 36.8241C25.022 33.9141 27.391 31.5461 30.303 31.5461Z" fill="#3FA9F5"/>
<path d="M18 59.0001V60.0001H33V58.0001H20.044C20.521 52.6081 24.829 48.5181 30.242 48.5181C32.287 48.5181 33.977 48.9291 35.409 49.7731L36.426 48.0501C34.678 47.0191 32.655 46.5181 30.243 46.5181C23.377 46.5181 18 52.0011 18 59.0001Z" fill="#3FA9F5"/>
</svg>
