<svg width="86" height="86" viewBox="0 0 86 86" fill="none" xmlns="http://www.w3.org/2000/svg">
<path d="M60 31H51V29C51 26.243 48.757 24 46 24H40C37.243 24 35 26.243 35 29V31H26C23.243 31 21 33.243 21 36V55C21 57.757 23.243 60 26 60H60C62.757 60 65 57.757 65 55V36C65 33.243 62.757 31 60 31ZM37 29C37 27.346 38.346 26 40 26H46C47.654 26 49 27.346 49 29V31H37V29ZM63 55C63 56.654 61.654 58 60 58H26C24.346 58 23 56.654 23 55V36C23 34.346 24.346 33 26 33H60C61.654 33 63 34.346 63 36V55Z" fill="#3FA9F5"/>
<path d="M35 47H33V55H35V47Z" fill="#3FA9F5"/>
<path d="M41 44H39V55H41V44Z" fill="#3FA9F5"/>
<path d="M47 41H45V55H47V41Z" fill="#3FA9F5"/>
<path d="M53 38H51V55H53V38Z" fill="#3FA9F5"/>
<path fill-rule="evenodd" clip-rule="evenodd" d="M0.5 43C0.5 19.5289 19.5279 0.5 43 0.5C53.5794 0.5 63.249 4.37409 70.686 10.7689L70.034 11.5271C62.771 5.28193 53.3306 1.5 43 1.5C20.0802 1.5 1.5 20.0811 1.5 43C1.5 53.3306 5.28193 62.771 11.5271 70.034L10.7689 70.686C4.37409 63.249 0.5 53.5794 0.5 43Z" fill="#70CF29"/>
<path fill-rule="evenodd" clip-rule="evenodd" d="M74.9975 15.0439C81.5308 22.5173 85.5 32.293 85.5 43C85.5 66.4712 66.4722 85.5 43 85.5C32.292 85.5 22.5173 81.5308 15.0439 74.9975L15.7021 74.2446C23.0008 80.6253 32.5441 84.5 43 84.5C65.9199 84.5 84.5 65.9189 84.5 43C84.5 32.545 80.6253 23.0008 74.2446 15.7021L74.9975 15.0439Z" fill="#3FA9F5"/>
</svg>
