<svg width="86" height="86" viewBox="0 0 86 86" fill="none" xmlns="http://www.w3.org/2000/svg">
<path fill-rule="evenodd" clip-rule="evenodd" d="M0.5 43C0.5 19.5279 19.5279 0.5 43 0.5C53.5795 0.5 63.249 4.3751 70.6859 10.7689L70.034 11.5271C62.771 5.28289 53.3305 1.5 43 1.5C20.0801 1.5 1.5 20.0801 1.5 43C1.5 53.3305 5.28192 62.77 11.5272 70.034L10.7689 70.686C4.3741 63.248 0.5 53.5795 0.5 43Z" fill="#70CF29"/>
<path fill-rule="evenodd" clip-rule="evenodd" d="M74.9974 15.0449C81.5308 22.5173 85.5001 32.293 85.5001 43C85.5001 66.4722 66.4722 85.5 43.0001 85.5C32.2921 85.5 22.5173 81.5308 15.044 74.9975L15.7021 74.2446C23.0008 80.6253 32.5441 84.5 43.0001 84.5C65.9199 84.5 84.5001 65.9199 84.5001 43C84.5001 32.545 80.6253 23.0008 74.2446 15.7031L74.9974 15.0449Z" fill="#3FA9F5"/>
<path d="M62.471 24H24.53C22.117 24 20.001 26.309 20.001 28.941V53.647C20.001 56.088 21.99 58 24.53 58H27V68.282L38.155 58H62.47C65.01 58 66.999 56.088 66.999 53.647V28.941C67 26.309 64.884 24 62.471 24ZM65 53.647C65 54.988 63.913 56 62.471 56H37.374L29 63.718V56H24.529C23.087 56 22 54.988 22 53.647V28.941C22 27.457 23.253 26 24.529 26H62.47C63.746 26 64.999 27.457 64.999 28.941V53.647H65Z" fill="#3FA9F5"/>
<path d="M42.9002 30.377C36.9092 30.377 32.0352 35.2339 32.0352 41.2039C32.0352 47.1739 36.9092 52.031 42.9002 52.031C48.8902 52.031 53.7632 47.1739 53.7632 41.2039C53.7632 35.2339 48.8912 30.377 42.9002 30.377ZM51.6712 40H47.5192C47.3972 37.336 46.8812 34.7569 45.9922 32.9409C48.9922 34.0589 51.2232 36.747 51.6712 40ZM42.9002 49.8829C42.0572 49.8829 40.4532 47.104 40.2692 42H45.5292C45.3462 47.106 43.7412 49.8829 42.9002 49.8829ZM40.2802 40C40.5112 35.068 42.0732 32.392 42.9002 32.392C43.7262 32.392 45.2902 35.07 45.5182 40H40.2802ZM39.8102 32.9409C38.9202 34.7559 38.4042 37.335 38.2812 40H34.1292C34.5762 36.747 36.8082 34.0589 39.8102 32.9409ZM34.0752 42H38.2692C38.3702 44.845 38.9212 47.6149 39.8962 49.4989C36.7252 48.3549 34.3892 45.468 34.0752 42ZM45.9032 49.4989C46.8772 47.6169 47.4272 44.846 47.5292 42H51.7232C51.4102 45.468 49.0752 48.3559 45.9032 49.4989Z" fill="#3FA9F5"/>
</svg>
